<svg xmlns="http://www.w3.org/2000/svg" id="a" viewBox="20 20 107 106"><defs><style>.b{fill:#334041;}</style></defs><path  class="b" d="M74.24,86.61c-.12-.88-.93-1.5-1.82-1.38-1.27,.17-3.45,.06-4.04-.6-.6-.66-1.62-.72-2.28-.12-.66,.6-.72,1.62-.12,2.28,.91,1.02,2.39,1.59,4.39,1.72,.28,.02,.56,.02,.82,.02,.94,0,1.63-.09,1.67-.1,.88-.12,1.5-.93,1.38-1.82Z"/><path class="b" d="M124.35,86.91c-1.36-1.16-3.25-2.19-5.74-3.13,1.84-4.01,2.81-8.55,2.81-13.33,0-7.63-3.41-14.7-9.59-19.92-2.96-2.5-6.42-4.45-10.27-5.81-3.94-1.39-8.13-2.09-12.46-2.09-4.99,0-8.75,1.18-12.39,2.33-4.23,1.33-8.25,2.6-14.23,2.09,.13-4.12-2.02-8.16-5.9-10.24-5.44-2.91-12.23-.85-15.14,4.58-1.55,2.89-1.69,6.17-.67,9.04-1.19,.72-2.34,1.51-3.45,2.36-4.83,3.71-8.26,8.17-11.37,12.42-.27,.36-.51,.69-.76,1-.37,.48-.72,.94-1.03,1.42-.05,.07-.1,.14-.14,.22-.58,.96-.96,2.01-.94,3.47,0,.07,0,.14,.02,.21,.12,.83,.58,2.02,2.06,2.98,.87,.56,2.01,1.01,3.49,1.36,2.53,.6,5.77,.87,8.9,1.12,2.49,.2,5.07,.41,7.13,.79,2.5,.45,3.44,1.01,3.79,1.39,.32,.35,.76,.53,1.19,.53,.39,0,.78-.14,1.09-.42,.66-.6,.71-1.62,.11-2.28-2.13-2.34-7.19-2.75-13.04-3.22-3.01-.24-6.12-.5-8.41-1.04h0c0-1.71-1.02-3.29-1.85-4.28,.07-.09,.14-.18,.21-.27,.24-.31,.51-.67,.8-1.07,2.96-4.06,6.23-8.32,10.72-11.77,.96-.74,1.97-1.43,3-2.06,.96,1.31,2.21,2.42,3.73,3.24,.24,.13,.5,.19,.76,.19,.58,0,1.13-.31,1.43-.85,.42-.79,.12-1.76-.66-2.19-3.87-2.07-5.33-6.9-3.26-10.77,2.07-3.87,6.9-5.33,10.77-3.26,3.87,2.07,5.33,6.9,3.26,10.77-.42,.79-.12,1.76,.66,2.19,.79,.42,1.76,.12,2.19-.66,.3-.56,.54-1.13,.74-1.71,6.78,.62,11.35-.81,15.77-2.2,3.56-1.12,6.92-2.18,11.42-2.18,16.31,0,29.09,10.8,29.09,24.59,0,5-1.13,9.53-3.16,13.32-.07,.1-.13,.21-.18,.33-3.95,7.13-11.09,11.6-19.78,11.6-.2,0-.4,.04-.58,.11h-18.64c-.78,0-1.42-.64-1.42-1.42s.63-1.42,1.41-1.42l6.73,.08h.03s.05,0,.07,0h.08s.04,0,.05-.01h.02s.04,0,.06-.01h.02s.04-.01,.06-.02h.02s.04-.01,.05-.02h.02l.05-.02h.03l.04-.03h.03l.03-.03,.04-.02h.03l.04-.04h.02s.03-.03,.05-.04h.02s.03-.03,.05-.04h.01c.05-.04,.1-.08,.15-.12l.03-.02,.02-.02,.04-.03h0l.02-.02,.03-.03,.03-.03,.03-.03,.03-.03,.02-.03,.03-.04,.02-.03,.03-.04,.02-.03,.02-.04,.02-.03,.02-.04,.02-.03,.02-.04,.02-.04v-.03l.03-.04v-.03l.03-.04v-.03l.02-.05v-.03l.02-.05v-.08l.02-.03v-.19h.01s0-.04,0-.05v-.14c-.02-.15-.06-.29-.11-.42v-.02l-.02-.03c-.05-.11-.1-.21-.17-.31h0s-.02-.03-.03-.05l-.02-.02-.03-.03-.03-.03-.02-.03-.03-.03h0c-2.93-2.94-4.55-6.84-4.55-10.99,0-8.13,6.53-14.03,15.54-14.03,.89,0,1.61-.72,1.61-1.61s-.72-1.61-1.61-1.61c-5.08,0-9.77,1.66-13.19,4.67-1.76,1.54-3.13,3.39-4.08,5.48-.99,2.18-1.49,4.57-1.49,7.11s.5,4.99,1.48,7.31c.47,1.11,1.04,2.17,1.71,3.17l-3.27-.04h-.02c-2.56,0-4.65,2.09-4.65,4.65s2.09,4.65,4.65,4.65h19.52c.22,0,.43-.04,.62-.12,3.51-.11,6.84-.86,9.89-2.23,3.18-1.43,5.99-3.5,8.35-6.14,1.06-1.2,2.02-2.49,2.86-3.87,2.31,.83,4.04,1.74,5.17,2.7,1.45,1.24,1.41,2.16,1.39,2.46-.05,.89-.67,1.94-1.8,3.05-1.22,1.19-2.98,2.4-5.21,3.59-4.29,2.28-9.97,4.27-15.58,5.46-.03,0-.07,.02-.1,.02-2.84,.79-4.99,1.62-6.39,2.47-.77,.47-1.34,.95-1.73,1.46-.65,.85-.7,1.65-.63,2.17,.13,.94,.72,1.74,1.77,2.39,.72,.45,1.68,.83,2.85,1.15,2.14,.58,4.91,.89,7.78,.89,.89,0,1.61-.72,1.61-1.61s-.72-1.61-1.61-1.61c-2.31,0-4.58-.23-6.37-.64-1.48-.34-2.28-.73-2.64-.97,.46-.42,1.91-1.37,6.19-2.57,5.88-1.25,11.84-3.34,16.38-5.76,2.51-1.33,4.51-2.72,5.95-4.13,1.75-1.71,2.68-3.45,2.77-5.19,.1-1.87-.75-3.58-2.52-5.09Z"/><path class="b" d="M66,71.42c.03-.89-.66-1.64-1.55-1.68-.89-.03-1.64,.66-1.68,1.55,0,.23-.02,.49-.02,.8-.09,3.05-.31,11.13-3.81,13.14l-7.54,3.16h0c-.35,.15-.74,.15-1.09,0-.35-.14-.63-.41-.77-.76-.3-.72,.04-1.56,.76-1.86h.01s.95-.41,3.73-1.58c1.18-.49,2.53-1.82,2.28-5.32-.12-1.69-.57-3.22-.59-3.29-.25-.86-1.15-1.34-2-1.09-.86,.25-1.34,1.15-1.09,2,0,.01,.37,1.28,.47,2.61,.11,1.46-.18,2.05-.3,2.1-2.73,1.14-3.68,1.55-3.76,1.58-2.36,1-3.47,3.73-2.47,6.09,.48,1.14,1.38,2.03,2.53,2.5,.57,.23,1.16,.35,1.75,.35s1.2-.12,1.76-.35h.04l7.63-3.21,.03-.02h.03s.07-.05,.1-.07c2.3-1.26,3.89-3.92,4.74-7.9,.65-3.04,.74-6.15,.79-8,0-.3,.02-.55,.02-.76Z"/></svg>